<svg width="171" height="96" viewBox="0 0 171 96" fill="none" xmlns="http://www.w3.org/2000/svg">
<g clip-path="url(#clip0_160_1190)">
<path fill-rule="evenodd" clip-rule="evenodd" d="M29.9251 21.9165C28.6302 21.9165 27.4154 22.1638 26.2806 22.6585C25.1458 23.1532 24.1516 23.8273 23.298 24.6808C22.4494 25.5295 21.7777 26.5212 21.283 27.6561C20.7883 28.7909 20.541 30.0057 20.541 31.3006C20.541 32.5954 20.7883 33.8151 21.283 34.9596C21.7777 36.0993 22.4494 37.0959 23.298 37.9494C24.1516 38.7981 25.1458 39.4698 26.2806 39.9645C27.4154 40.4591 28.6302 40.7065 29.9251 40.7065H36.1884C36.6249 40.7065 37.0322 40.7865 37.4105 40.9465C37.7888 41.1066 38.1186 41.3296 38.3998 41.6158C38.686 41.897 38.9091 42.2268 39.0691 42.6051C39.2291 42.9834 39.3092 43.3907 39.3092 43.8272C39.3092 44.2637 39.2291 44.671 39.0691 45.0493C38.9091 45.4276 38.686 45.7598 38.3998 46.0459C38.1186 46.3272 37.7888 46.5478 37.4105 46.7079C37.0322 46.8679 36.6249 46.9479 36.1884 46.9479H22.2869V53.2113H36.1884C37.4833 53.2113 38.7005 52.9639 39.8402 52.4693C40.9847 51.9746 41.9813 51.3029 42.83 50.4542C43.6835 49.6007 44.3528 48.6065 44.8378 47.4717C45.3276 46.3369 45.5725 45.1221 45.5725 43.8272C45.5725 42.5323 45.3276 41.3151 44.8378 40.1754C44.3528 39.0309 43.6835 38.0343 42.83 37.1856C41.9813 36.3321 40.9847 35.6628 39.8402 35.1779C38.7005 34.688 37.4833 34.4431 36.1884 34.4431H29.9251C29.4886 34.4431 29.0812 34.3631 28.703 34.2031C28.3247 34.043 27.9925 33.8224 27.7064 33.5411C27.4251 33.255 27.2044 32.9203 27.0444 32.5372C26.8844 32.1493 26.8043 31.737 26.8043 31.3006C26.8043 30.8641 26.8844 30.4567 27.0444 30.0785C27.2044 29.7002 27.4251 29.3704 27.7064 29.0891C27.9925 28.803 28.3247 28.5799 28.703 28.4199C29.0812 28.2598 29.4886 28.1798 29.9251 28.1798H44.2849V21.9165H29.9251Z" fill="#F5F5F5"/>
<path fill-rule="evenodd" clip-rule="evenodd" d="M49.6753 21.9165V53.2113H55.9386V21.9165H49.6753Z" fill="#F5F5F5"/>
<path fill-rule="evenodd" clip-rule="evenodd" d="M69.2942 21.9165C67.9994 21.9165 66.7845 22.1638 65.6497 22.6585C64.5149 23.1532 63.5207 23.8273 62.6672 24.6808C61.8185 25.5295 61.1468 26.5212 60.6522 27.6561C60.1575 28.7909 59.9102 30.0057 59.9102 31.3006C59.9102 32.5954 60.1575 33.8151 60.6522 34.9596C61.1468 36.0993 61.8185 37.0959 62.6672 37.9494C63.5207 38.7981 64.5149 39.4698 65.6497 39.9645C66.7845 40.4591 67.9994 40.7065 69.2942 40.7065H75.5575C75.994 40.7065 76.4014 40.7865 76.7797 40.9465C77.1579 41.1066 77.4877 41.3296 77.769 41.6158C78.0551 41.897 78.2782 42.2268 78.4382 42.6051C78.5983 42.9834 78.6783 43.3907 78.6783 43.8272C78.6783 44.2637 78.5983 44.671 78.4382 45.0493C78.2782 45.4276 78.0551 45.7598 77.769 46.0459C77.4877 46.3272 77.1579 46.5478 76.7797 46.7079C76.4014 46.8679 75.994 46.9479 75.5575 46.9479H61.656V53.2113H75.5575C76.8524 53.2113 78.0697 52.9639 79.2093 52.4693C80.3538 51.9746 81.3504 51.3029 82.1991 50.4542C83.0527 49.6007 83.7219 48.6065 84.2069 47.4717C84.6967 46.3369 84.9416 45.1221 84.9416 43.8272C84.9416 42.5323 84.6967 41.3151 84.2069 40.1754C83.7219 39.0309 83.0527 38.0343 82.1991 37.1856C81.3504 36.3321 80.3538 35.6628 79.2093 35.1779C78.0697 34.688 76.8524 34.4431 75.5575 34.4431H69.2942C68.8578 34.4431 68.4504 34.3631 68.0721 34.2031C67.6938 34.043 67.3616 33.8224 67.0755 33.5411C66.7942 33.255 66.5736 32.9203 66.4135 32.5372C66.2535 32.1493 66.1735 31.737 66.1735 31.3006C66.1735 30.8641 66.2535 30.4567 66.4135 30.0785C66.5736 29.7002 66.7942 29.3704 67.0755 29.0891C67.3616 28.803 67.6938 28.5799 68.0721 28.4199C68.4504 28.2598 68.8578 28.1798 69.2942 28.1798H83.654V21.9165H69.2942Z" fill="#F5F5F5"/>
<path fill-rule="evenodd" clip-rule="evenodd" d="M89.0444 21.9165V53.2113H95.3077V21.9165H89.0444Z" fill="#F5F5F5"/>
<path fill-rule="evenodd" clip-rule="evenodd" d="M113.639 28.1798C114.498 28.1798 115.305 28.3447 116.062 28.6745C116.818 28.9994 117.48 29.4456 118.048 30.013C118.615 30.5804 119.061 31.2472 119.386 32.0135C119.716 32.7749 119.881 33.5847 119.881 34.4431C119.881 35.3015 119.716 36.1138 119.386 36.8801C119.061 37.6415 118.615 38.3059 118.048 38.8733C117.48 39.4407 116.818 39.8893 116.062 40.2191C115.305 40.544 114.498 40.7065 113.639 40.7065H107.376V28.1798H113.639ZM101.113 21.9165V53.2113H107.376V46.9479L114.381 46.9043L117.109 53.2113H123.766L120.296 45.0275C121.198 44.4601 122.012 43.7908 122.74 43.0197C123.467 42.2486 124.081 41.4048 124.58 40.4882C125.085 39.5716 125.47 38.6041 125.737 37.5857C126.008 36.5673 126.144 35.5198 126.144 34.4431C126.144 33.2938 125.994 32.1881 125.693 31.126C125.397 30.0639 124.975 29.0673 124.427 28.1362C123.884 27.205 123.23 26.3588 122.463 25.5974C121.702 24.8311 120.858 24.1764 119.932 23.6333C119.01 23.0853 118.019 22.6633 116.957 22.3675C115.895 22.0668 114.789 21.9165 113.639 21.9165H101.113Z" fill="#F5F5F5"/>
<path fill-rule="evenodd" clip-rule="evenodd" d="M24.0047 59.4681V75.5771H24.8997V60.3631H34.3713C35.5314 60.3631 36.5465 60.776 37.4166 61.6019C38.2867 62.425 38.7217 63.3793 38.7217 64.4649C38.7217 65.741 38.295 66.7851 37.4415 67.5972C36.5879 68.4092 35.5645 68.8153 34.3713 68.8153H28.9767V69.7102H34.3713C35.8049 69.7102 37.0368 69.2089 38.0671 68.2062C39.1002 67.2036 39.6167 65.9564 39.6167 64.4649C39.6167 63.1307 39.0946 61.9651 38.0505 60.968C37.0064 59.9681 35.78 59.4681 34.3713 59.4681H24.0047ZM25.7947 61.258V75.5771H26.6896V62.1529H34.3713C35.0425 62.1529 35.6364 62.3891 36.1529 62.8614C36.6722 63.3338 36.9318 63.8682 36.9318 64.4649C36.9318 65.277 36.6832 65.9067 36.186 66.3542C35.6888 66.8017 35.0839 67.0254 34.3713 67.0254H28.9767V67.9203H34.3713C35.3325 67.9203 36.1488 67.6082 36.82 66.984C37.4912 66.357 37.8268 65.5173 37.8268 64.4649C37.8268 63.6196 37.4801 62.8739 36.7868 62.2275C36.0963 61.5812 35.2911 61.258 34.3713 61.258H25.7947ZM27.5846 63.0479V75.5771H28.4795V63.9428H34.3713C34.5784 63.9428 34.758 63.9953 34.9099 64.1003C35.0646 64.2025 35.1419 64.324 35.1419 64.4649C35.1419 64.9786 34.885 65.2355 34.3713 65.2355H28.9767V66.1305H34.3713C35.4817 66.1305 36.0369 65.5753 36.0369 64.4649C36.0369 64.0754 35.8753 63.7426 35.5521 63.4663C35.2289 63.1874 34.8353 63.0479 34.3713 63.0479H27.5846ZM22.2148 57.6782V75.5771H23.1098V58.5732H34.3713C35.4568 58.5732 36.4733 58.8425 37.4207 59.3811C38.3709 59.9197 39.1236 60.6434 39.6788 61.5522C40.234 62.4582 40.5116 63.4291 40.5116 64.4649C40.5116 65.6084 40.2313 66.6525 39.6706 67.5972C39.1126 68.5418 38.3654 69.2793 37.429 69.8097C36.4926 70.34 35.4734 70.6052 34.3713 70.6052H28.9767V71.5001H31.674L33.1904 75.5771H34.1351L32.6311 71.5001H33.439L35.0052 75.5771H35.9499L34.3713 71.5001C34.653 71.5001 34.9223 71.4877 35.1792 71.4628L36.82 75.5771H37.7771L36.099 71.3137C36.3974 71.2391 36.6584 71.1645 36.8821 71.0899L38.6596 75.5771H39.6167L37.7398 70.7295C38.8585 70.166 39.7493 69.3442 40.4122 68.2642C41.0751 67.1815 41.4066 65.915 41.4066 64.4649C41.4066 63.5699 41.216 62.704 40.8348 61.8671C40.4536 61.0301 39.9482 60.3078 39.3184 59.7001C38.6886 59.0897 37.94 58.6008 37.0727 58.2334C36.2081 57.8633 35.3077 57.6782 34.3713 57.6782H22.2148Z" fill="#F5F5F5"/>
<path fill-rule="evenodd" clip-rule="evenodd" d="M52.5065 62.5259C51.2967 62.5259 50.2899 62.9237 49.4861 63.7192C48.6823 64.5147 48.2804 65.4842 48.2804 66.6277C48.2804 67.3652 48.406 68.0185 48.6574 68.5875C48.9115 69.1537 49.254 69.6012 49.6849 69.9299C50.1158 70.2558 50.5937 70.5003 51.1185 70.6633C51.6461 70.8235 52.2082 70.9036 52.8048 70.9036C53.7329 70.9036 54.5989 70.6923 55.4027 70.2696V69.3747C54.6237 69.8387 53.7619 70.0708 52.8173 70.0708C52.4278 70.0708 52.0604 70.0335 51.7152 69.9589C51.3726 69.8843 51.0439 69.7628 50.729 69.5943C50.4142 69.423 50.1421 69.2076 49.9128 68.9479C49.6863 68.6855 49.5068 68.3582 49.3742 67.966C49.2416 67.571 49.1753 67.1249 49.1753 66.6277C49.1753 65.7494 49.5026 64.9953 50.1573 64.3655C50.8119 63.7357 51.595 63.4208 52.5065 63.4208C53.5838 63.4208 54.4497 63.7109 55.1044 64.2909C55.759 64.871 56.0863 65.6914 56.0863 66.752V75.5772H56.9813V66.752C56.9813 65.4345 56.5683 64.4014 55.7424 63.6529C54.9193 62.9016 53.8407 62.5259 52.5065 62.5259ZM52.5065 60.736C50.8078 60.736 49.3797 61.3106 48.2224 62.4596C47.0678 63.6059 46.4905 64.9953 46.4905 66.6277C46.4905 67.589 46.6603 68.4577 47.0001 69.2338C47.3398 70.0072 47.7997 70.637 48.3798 71.1232C48.9599 71.6065 49.6186 71.9753 50.3562 72.2294C51.0937 72.4808 51.8726 72.6064 52.693 72.6064C53.6045 72.6064 54.5077 72.42 55.4027 72.0471V71.1024C54.5492 71.5416 53.6501 71.7612 52.7054 71.7612C52.0093 71.7612 51.3478 71.6563 50.7208 71.4463C50.0965 71.2336 49.5316 70.9243 49.0262 70.5182C48.5207 70.1122 48.1202 69.5736 47.8246 68.9024C47.5318 68.2312 47.3854 67.4729 47.3854 66.6277C47.3854 65.2356 47.8743 64.0548 48.8521 63.0852C49.83 62.1157 51.0481 61.631 52.5065 61.631C54.081 61.631 55.3695 62.0936 56.3722 63.019C57.3749 63.9415 57.8762 65.1859 57.8762 66.752V75.5772H58.7712V66.752C58.7712 65.5505 58.4977 64.4898 57.9508 63.57C57.4039 62.6502 56.6581 61.9486 55.7134 61.4652C54.7688 60.9791 53.6998 60.736 52.5065 60.736ZM52.5065 58.9461C51.421 58.9461 50.3934 59.1492 49.4239 59.5552C48.4544 59.9612 47.6257 60.5081 46.9379 61.1959C46.2501 61.8837 45.7046 62.6999 45.3013 63.6446C44.9008 64.5892 44.7006 65.5836 44.7006 66.6277C44.7006 68.0944 45.061 69.4203 45.7819 70.6053C46.5029 71.7902 47.4641 72.7059 48.6657 73.3522C49.8672 73.9986 51.1848 74.3217 52.6184 74.3217C53.5299 74.3217 54.458 74.1436 55.4027 73.7873V72.8799C54.4994 73.2694 53.5796 73.4641 52.6433 73.4641C51.7234 73.4641 50.8423 73.3094 49.9998 73C49.1601 72.6879 48.4102 72.2501 47.75 71.6866C47.0926 71.1232 46.5692 70.405 46.1797 69.5322C45.7902 68.6565 45.5955 67.6884 45.5955 66.6277C45.5955 65.393 45.8952 64.2578 46.4946 63.222C47.0968 62.1862 47.9282 61.3644 48.9889 60.7567C50.0496 60.1463 51.2221 59.8411 52.5065 59.8411C53.8572 59.8411 55.0754 60.1228 56.1609 60.6863C57.2465 61.2498 58.1014 62.0605 58.7256 63.1184C59.3526 64.1735 59.6661 65.3847 59.6661 66.752V75.5772H60.5611V66.752C60.5611 65.2273 60.2089 63.8683 59.5046 62.6751C58.8002 61.4818 57.8362 60.562 56.6125 59.9157C55.3916 59.2693 54.023 58.9461 52.5065 58.9461ZM52.5065 57.1562C51.1558 57.1562 49.8811 57.4076 48.6823 57.9103C47.4862 58.4103 46.467 59.0856 45.6245 59.9364C44.7848 60.7844 44.1219 61.7912 43.6357 62.9568C43.1523 64.1197 42.9106 65.3433 42.9106 66.6277C42.9106 67.7464 43.0847 68.8071 43.4327 69.8097C43.7807 70.8124 44.2614 71.6894 44.8746 72.4407C45.4878 73.1893 46.1977 73.8398 47.0042 74.3922C47.8135 74.9419 48.6919 75.3576 49.6394 75.6393C50.5896 75.921 51.566 76.0619 52.5687 76.0619C53.5382 76.0619 54.4829 75.9003 55.4027 75.5772V74.6574C54.5243 75.0302 53.5962 75.2167 52.6184 75.2167C51.7317 75.2167 50.8589 75.0882 49.9998 74.8314C49.1435 74.5745 48.3439 74.1974 47.6009 73.7003C46.8606 73.2031 46.2059 72.6133 45.6369 71.9311C45.0707 71.2461 44.6232 70.4464 44.2945 69.5322C43.9686 68.6151 43.8056 67.647 43.8056 66.6277C43.8056 65.0782 44.1868 63.6473 44.9491 62.3353C45.7115 61.0205 46.7598 59.9778 48.0939 59.2072C49.4281 58.4365 50.8989 58.0512 52.5065 58.0512C54.1804 58.0512 55.6969 58.4144 57.0559 59.1409C58.4149 59.8646 59.488 60.8921 60.2752 62.2234C61.0624 63.5521 61.456 65.0616 61.456 66.752V75.5772H62.351V66.752C62.351 65.335 62.0983 64.0258 61.5928 62.8242C61.0873 61.6227 60.3954 60.6103 59.517 59.7872C58.6386 58.9613 57.5945 58.3164 56.3847 57.8523C55.1748 57.3883 53.8821 57.1562 52.5065 57.1562Z" fill="#F5F5F5"/>
<path fill-rule="evenodd" clip-rule="evenodd" d="M74.8927 63.9428C75.5639 63.9428 76.1371 64.2038 76.6122 64.7259C77.0901 65.2479 77.329 65.8736 77.329 66.6028C77.329 67.3652 77.0901 68.0074 76.6122 68.5294C76.1371 69.0515 75.5639 69.3125 74.8927 69.3125H70.8281V63.9428H74.8927ZM69.9332 63.0479V70.2074H74.8927C75.8208 70.2074 76.6122 69.8594 77.2668 69.1633C77.9215 68.4673 78.2488 67.6137 78.2488 66.6028C78.2488 65.625 77.9187 64.788 77.2585 64.092C76.6011 63.3959 75.8125 63.0479 74.8927 63.0479H69.9332ZM74.8927 62.1529C76.0611 62.1529 77.0652 62.588 77.9049 63.4581C78.7474 64.3281 79.1686 65.3764 79.1686 66.6028C79.1686 67.854 78.7501 68.9175 77.9132 69.7931C77.0762 70.6659 76.0694 71.1024 74.8927 71.1024H69.0382V62.1529H74.8927ZM68.1433 61.258V71.9973H74.8927C76.318 71.9973 77.5403 71.4739 78.5595 70.427C79.5788 69.3774 80.0884 68.1026 80.0884 66.6028C80.0884 65.1361 79.576 63.8793 78.5513 62.8324C77.5292 61.7828 76.3097 61.258 74.8927 61.258H68.1433ZM74.8927 60.3631C75.9783 60.3631 76.9906 60.6434 77.9298 61.2041C78.8717 61.7621 79.6202 62.5217 80.1754 63.4829C80.7306 64.4442 81.0082 65.4841 81.0082 66.6028C81.0082 67.7463 80.7306 68.8029 80.1754 69.7724C79.6202 70.7419 78.8744 71.5043 77.938 72.0595C77.0017 72.6146 75.9866 72.8922 74.8927 72.8922H67.2483V60.3631H74.8927ZM66.3534 59.4681V73.7872H74.8927C76.144 73.7872 77.3096 73.4682 78.3897 72.8301C79.4724 72.192 80.3329 71.3206 80.9709 70.2157C81.609 69.1081 81.928 67.9038 81.928 66.6028C81.928 65.3184 81.609 64.1279 80.9709 63.0313C80.3329 61.932 79.4724 61.0633 78.3897 60.4252C77.3096 59.7871 76.144 59.4681 74.8927 59.4681H66.3534ZM74.8927 58.5732C76.3014 58.5732 77.6163 58.9322 78.8371 59.6504C80.0608 60.3658 81.0345 61.3436 81.7582 62.5838C82.4846 63.8213 82.8479 65.1609 82.8479 66.6028C82.8479 68.0695 82.4846 69.4243 81.7582 70.6673C81.0345 71.9103 80.0636 72.8909 78.8454 73.609C77.6273 74.3244 76.3097 74.6821 74.8927 74.6821H65.4584V58.5732H74.8927ZM64.5635 57.6782V75.5771H74.8927C76.0694 75.5771 77.2047 75.3409 78.2985 74.8686C79.3923 74.3962 80.3384 73.7609 81.1367 72.9627C81.9377 72.1617 82.5758 71.2059 83.0509 70.0956C83.5287 68.9852 83.7677 67.8209 83.7677 66.6028C83.7677 64.9952 83.363 63.5064 82.5537 62.1364C81.7471 60.7636 80.6616 59.678 79.2971 58.8798C77.9353 58.0787 76.4672 57.6782 74.8927 57.6782H64.5635Z" fill="#F5F5F5"/>
<path fill-rule="evenodd" clip-rule="evenodd" d="M94.8923 62.5259C93.6824 62.5259 92.6756 62.9237 91.8718 63.7192C91.068 64.5147 90.6661 65.4842 90.6661 66.6277C90.6661 67.3652 90.7918 68.0185 91.0431 68.5875C91.2973 69.1537 91.6398 69.6012 92.0707 69.9299C92.5016 70.2558 92.9794 70.5003 93.5042 70.6633C94.0318 70.8235 94.5939 70.9036 95.1906 70.9036C96.1187 70.9036 96.9846 70.6923 97.7884 70.2696V69.3747C97.0095 69.8387 96.1477 70.0708 95.203 70.0708C94.8135 70.0708 94.4462 70.0335 94.1009 69.9589C93.7584 69.8843 93.4297 69.7628 93.1148 69.5943C92.7999 69.423 92.5278 69.2076 92.2986 68.9479C92.0721 68.6855 91.8925 68.3582 91.7599 67.966C91.6273 67.571 91.561 67.1249 91.561 66.6277C91.561 65.7494 91.8884 64.9953 92.543 64.3655C93.1976 63.7357 93.9807 63.4208 94.8923 63.4208C95.9695 63.4208 96.8355 63.7109 97.4901 64.2909C98.1447 64.871 98.4721 65.6914 98.4721 66.752V75.5772H99.367V66.752C99.367 65.4345 98.9541 64.4014 98.1282 63.6529C97.305 62.9016 96.2264 62.5259 94.8923 62.5259ZM94.8923 60.736C93.1935 60.736 91.7654 61.3106 90.6081 62.4596C89.4535 63.6059 88.8762 64.9953 88.8762 66.6277C88.8762 67.589 89.0461 68.4577 89.3858 69.2338C89.7256 70.0072 90.1855 70.637 90.7655 71.1232C91.3456 71.6065 92.0044 71.9753 92.7419 72.2294C93.4794 72.4808 94.2583 72.6064 95.0787 72.6064C95.9902 72.6064 96.8935 72.42 97.7884 72.0471V71.1024C96.9349 71.5416 96.0358 71.7612 95.0911 71.7612C94.3951 71.7612 93.7335 71.6563 93.1065 71.4463C92.4822 71.2336 91.9174 70.9243 91.4119 70.5182C90.9064 70.1122 90.5059 69.5736 90.2103 68.9024C89.9175 68.2312 89.7711 67.4729 89.7711 66.6277C89.7711 65.2356 90.26 64.0548 91.2379 63.0852C92.2157 62.1157 93.4338 61.631 94.8923 61.631C96.4667 61.631 97.7553 62.0936 98.7579 63.019C99.7606 63.9415 100.262 65.1859 100.262 66.752V75.5772H101.157V66.752C101.157 65.5505 100.883 64.4898 100.337 63.57C99.7896 62.6502 99.0438 61.9486 98.0992 61.4652C97.1545 60.9791 96.0855 60.736 94.8923 60.736ZM94.8923 58.9461C93.8067 58.9461 92.7792 59.1492 91.8096 59.5552C90.8401 59.9612 90.0115 60.5081 89.3237 61.1959C88.6359 61.8837 88.0903 62.6999 87.6871 63.6446C87.2865 64.5892 87.0863 65.5836 87.0863 66.6277C87.0863 68.0944 87.4468 69.4203 88.1677 70.6053C88.8886 71.7902 89.8499 72.7059 91.0514 73.3522C92.253 73.9986 93.5705 74.3217 95.0041 74.3217C95.9156 74.3217 96.8437 74.1436 97.7884 73.7873V72.8799C96.8852 73.2694 95.9654 73.4641 95.029 73.4641C94.1092 73.4641 93.228 73.3094 92.3856 73C91.5458 72.6879 90.7959 72.2501 90.1358 71.6866C89.4783 71.1232 88.9549 70.405 88.5654 69.5322C88.176 68.6565 87.9812 67.6884 87.9812 66.6277C87.9812 65.393 88.2809 64.2578 88.8803 63.222C89.4825 62.1862 90.3139 61.3644 91.3746 60.7567C92.4353 60.1463 93.6078 59.8411 94.8923 59.8411C96.243 59.8411 97.4611 60.1228 98.5466 60.6863C99.6322 61.2498 100.487 62.0605 101.111 63.1184C101.738 64.1735 102.052 65.3847 102.052 66.752V75.5772H102.947V66.752C102.947 65.2273 102.595 63.8683 101.89 62.6751C101.186 61.4818 100.222 60.562 98.9983 59.9157C97.7774 59.2693 96.4087 58.9461 94.8923 58.9461ZM94.8923 57.1562C93.5415 57.1562 92.2668 57.4076 91.068 57.9103C89.872 58.4103 88.8527 59.0856 88.0102 59.9364C87.1705 60.7844 86.5076 61.7912 86.0215 62.9568C85.5381 64.1197 85.2964 65.3433 85.2964 66.6277C85.2964 67.7464 85.4704 68.8071 85.8184 69.8097C86.1665 70.8124 86.6471 71.6894 87.2603 72.4407C87.8735 73.1893 88.5834 73.8398 89.39 74.3922C90.1993 74.9419 91.0777 75.3576 92.0251 75.6393C92.9753 75.921 93.9517 76.0619 94.9544 76.0619C95.9239 76.0619 96.8686 75.9003 97.7884 75.5772V74.6574C96.91 75.0302 95.9819 75.2167 95.0041 75.2167C94.1175 75.2167 93.2446 75.0882 92.3856 74.8314C91.5293 74.5745 90.7296 74.1974 89.9866 73.7003C89.2463 73.2031 88.5917 72.6133 88.0227 71.9311C87.4564 71.2461 87.0089 70.4464 86.6802 69.5322C86.3543 68.6151 86.1913 67.647 86.1913 66.6277C86.1913 65.0782 86.5725 63.6473 87.3349 62.3353C88.0973 61.0205 89.1455 59.9778 90.4796 59.2072C91.8138 58.4365 93.2847 58.0512 94.8923 58.0512C96.5661 58.0512 98.0826 58.4144 99.4416 59.1409C100.801 59.8646 101.874 60.8921 102.661 62.2234C103.448 63.5521 103.842 65.0616 103.842 66.752V75.5772H104.737V66.752C104.737 65.335 104.484 64.0258 103.979 62.8242C103.473 61.6227 102.781 60.6103 101.903 59.7872C101.024 58.9613 99.9802 58.3164 98.7704 57.8523C97.5605 57.3883 96.2678 57.1562 94.8923 57.1562Z" fill="#F5F5F5"/>
<path fill-rule="evenodd" clip-rule="evenodd" d="M108.74 59.4681V75.5771H109.635V60.3631H119.106C120.266 60.3631 121.281 60.776 122.151 61.6019C123.022 62.425 123.457 63.3793 123.457 64.4649C123.457 65.741 123.03 66.7851 122.176 67.5972C121.323 68.4092 120.299 68.8153 119.106 68.8153H113.712V69.7102H119.106C120.54 69.7102 121.772 69.2089 122.802 68.2062C123.835 67.2036 124.352 65.9564 124.352 64.4649C124.352 63.1307 123.83 61.9651 122.785 60.968C121.741 59.9681 120.515 59.4681 119.106 59.4681H108.74ZM110.53 61.258V75.5771H111.424V62.1529H119.106C119.777 62.1529 120.371 62.3891 120.888 62.8614C121.407 63.3338 121.667 63.8682 121.667 64.4649C121.667 65.277 121.418 65.9067 120.921 66.3542C120.424 66.8017 119.819 67.0254 119.106 67.0254H113.712V67.9203H119.106C120.067 67.9203 120.884 67.6082 121.555 66.984C122.226 66.357 122.562 65.5173 122.562 64.4649C122.562 63.6196 122.215 62.8739 121.522 62.2275C120.831 61.5812 120.026 61.258 119.106 61.258H110.53ZM112.319 63.0479V75.5771H113.214V63.9428H119.106C119.313 63.9428 119.493 63.9953 119.645 64.1003C119.799 64.2025 119.877 64.324 119.877 64.4649C119.877 64.9786 119.62 65.2355 119.106 65.2355H113.712V66.1305H119.106C120.217 66.1305 120.772 65.5753 120.772 64.4649C120.772 64.0754 120.61 63.7426 120.287 63.4663C119.964 63.1874 119.57 63.0479 119.106 63.0479H112.319ZM106.95 57.6782V75.5771H107.845V58.5732H119.106C120.192 58.5732 121.208 58.8425 122.156 59.3811C123.106 59.9197 123.859 60.6434 124.414 61.5522C124.969 62.4582 125.247 63.4291 125.247 64.4649C125.247 65.6084 124.966 66.6525 124.405 67.5972C123.847 68.5418 123.1 69.2793 122.164 69.8097C121.228 70.34 120.208 70.6052 119.106 70.6052H113.712V71.5001H116.409L117.925 75.5771H118.87L117.366 71.5001H118.174L119.74 75.5771H120.685L119.106 71.5001C119.388 71.5001 119.657 71.4877 119.914 71.4628L121.555 75.5771H122.512L120.834 71.3137C121.132 71.2391 121.393 71.1645 121.617 71.0899L123.394 75.5771H124.352L122.475 70.7295C123.593 70.166 124.484 69.3442 125.147 68.2642C125.81 67.1815 126.141 65.915 126.141 64.4649C126.141 63.5699 125.951 62.704 125.57 61.8671C125.189 61.0301 124.683 60.3078 124.053 59.7001C123.423 59.0897 122.675 58.6008 121.808 58.2334C120.943 57.8633 120.043 57.6782 119.106 57.6782H106.95Z" fill="#F5F5F5"/>
<path fill-rule="evenodd" clip-rule="evenodd" d="M133.458 21.8704C134.53 20.7986 136.268 20.7986 137.339 21.8704C137.854 22.3851 138.143 23.0832 138.143 23.811C138.143 24.5389 137.854 25.237 137.339 25.7517C136.268 26.8235 134.53 26.8235 133.458 25.7517C132.386 24.6799 132.386 22.9422 133.458 21.8704Z" fill="#F5F5F5"/>
<path fill-rule="evenodd" clip-rule="evenodd" d="M137.34 43.5603C138.412 44.6321 138.412 46.3699 137.34 47.4417C136.826 47.9564 136.128 48.2455 135.4 48.2455C134.672 48.2455 133.974 47.9564 133.459 47.4417C132.387 46.3699 132.387 44.6321 133.459 43.5603C134.531 42.4885 136.269 42.4885 137.34 43.5603Z" fill="#F5F5F5"/>
<path fill-rule="evenodd" clip-rule="evenodd" d="M138.658 28.0345C140.122 27.6422 141.627 28.5111 142.019 29.9752C142.208 30.6783 142.109 31.4274 141.745 32.0577C141.381 32.6881 140.782 33.1481 140.079 33.3365C138.614 33.7288 137.11 32.8599 136.717 31.3958C136.325 29.9317 137.194 28.4268 138.658 28.0345Z" fill="#F5F5F5"/>
<path fill-rule="evenodd" clip-rule="evenodd" d="M140.079 35.9735C141.544 36.3658 142.412 37.8707 142.02 39.3347C141.832 40.0378 141.372 40.6373 140.741 41.0012C140.111 41.3652 139.362 41.4638 138.659 41.2754C137.195 40.8831 136.326 39.3782 136.718 37.9141C137.111 36.45 138.615 35.5812 140.079 35.9735Z" fill="#F5F5F5"/>
<path fill-rule="evenodd" clip-rule="evenodd" d="M129.896 26.9855C130.539 26.3422 131.582 26.3422 132.226 26.9855C132.535 27.2945 132.708 27.7135 132.708 28.1504C132.708 28.5872 132.535 29.0062 132.226 29.3152C131.582 29.9585 130.539 29.9585 129.896 29.3152C129.253 28.6719 129.253 27.6288 129.896 26.9855Z" fill="#F5F5F5"/>
<path fill-rule="evenodd" clip-rule="evenodd" d="M132.225 39.9987C132.869 40.642 132.869 41.685 132.225 42.3284C131.916 42.6373 131.497 42.8108 131.06 42.8108C130.624 42.8108 130.205 42.6373 129.896 42.3284C129.252 41.685 129.252 40.642 129.896 39.9987C130.539 39.3554 131.582 39.3554 132.225 39.9987Z" fill="#F5F5F5"/>
<path fill-rule="evenodd" clip-rule="evenodd" d="M133.017 30.6843C133.895 30.4485 134.798 30.969 135.034 31.847C135.147 32.2687 135.088 32.718 134.87 33.0962C134.652 33.4744 134.293 33.7506 133.871 33.8638C132.993 34.0996 132.09 33.5791 131.855 32.7011C131.619 31.8231 132.139 30.9202 133.017 30.6843Z" fill="#F5F5F5"/>
<path fill-rule="evenodd" clip-rule="evenodd" d="M133.87 35.4463C134.748 35.6821 135.268 36.5851 135.033 37.4631C134.919 37.8847 134.643 38.244 134.265 38.4621C133.887 38.6801 133.437 38.739 133.016 38.6258C132.138 38.3899 131.617 37.487 131.853 36.609C132.089 35.731 132.992 35.2104 133.87 35.4463Z" fill="#F5F5F5"/>
<path fill-rule="evenodd" clip-rule="evenodd" d="M127.759 30.0544C128.146 29.6679 128.772 29.6679 129.159 30.0544C129.344 30.2399 129.448 30.4917 129.448 30.7541C129.448 31.0166 129.344 31.2683 129.159 31.4538C128.772 31.8403 128.146 31.8403 127.759 31.4538C127.373 31.0674 127.373 30.4408 127.759 30.0544Z" fill="#F5F5F5"/>
<path fill-rule="evenodd" clip-rule="evenodd" d="M129.157 37.8604C129.543 38.2469 129.543 38.8734 129.157 39.2599C128.971 39.4455 128.719 39.5497 128.457 39.5497C128.194 39.5497 127.943 39.4455 127.757 39.2599C127.371 38.8734 127.371 38.2469 127.757 37.8604C128.144 37.4739 128.77 37.4739 129.157 37.8604Z" fill="#F5F5F5"/>
<path fill-rule="evenodd" clip-rule="evenodd" d="M129.633 32.2722C130.16 32.131 130.701 32.4433 130.842 32.9699C130.91 33.2227 130.875 33.4922 130.744 33.719C130.613 33.9457 130.397 34.1112 130.145 34.1791C129.618 34.3204 129.077 34.008 128.935 33.4815C128.794 32.9549 129.106 32.4135 129.633 32.2722Z" fill="#F5F5F5"/>
<path fill-rule="evenodd" clip-rule="evenodd" d="M130.145 35.1303C130.671 35.2715 130.983 35.8129 130.842 36.3395C130.774 36.5924 130.609 36.8079 130.382 36.9387C130.155 37.0696 129.886 37.105 129.633 37.0371C129.106 36.8958 128.794 36.3545 128.935 35.8279C129.077 35.3013 129.618 34.989 130.145 35.1303Z" fill="#F5F5F5"/>
</g>
<defs>
<clipPath id="clip0_160_1190">
<rect width="170.667" height="96" fill="white"/>
</clipPath>
</defs>
</svg>
